<svg width="400" height="400" viewBox="0 0 400 400" xmlns="http://www.w3.org/2000/svg">
<rect x="150" y="70" width="130" height="240" rx="20" fill="none" stroke="#FFFFFF" stroke-width="1.5"/>
<rect x="164" y="94" width="102" height="170" rx="6" fill="none" stroke="#FFFFFF" stroke-width="1" opacity="0.5"/>
<circle cx="215" cy="280" r="10" fill="none" stroke="#FFFFFF" stroke-width="1"/>
<g transform="translate(215,178)">
<circle r="38" fill="#F2C29B"/>
<circle r="14" fill="#1A1A1A"/>
<g fill="#F2C29B">
<rect x="-6" y="-52" width="12" height="18" rx="2"/>
<rect x="-6" y="34" width="12" height="18" rx="2"/>
<rect x="-52" y="-6" width="18" height="12" rx="2"/>
<rect x="34" y="-6" width="18" height="12" rx="2"/>
<rect x="-42" y="-42" width="16" height="16" rx="2" transform="rotate(45 -34 -34)"/>
<rect x="26" y="-42" width="16" height="16" rx="2" transform="rotate(-45 34 -34)"/>
<rect x="-42" y="26" width="16" height="16" rx="2" transform="rotate(-45 -34 34)"/>
<rect x="26" y="26" width="16" height="16" rx="2" transform="rotate(45 34 34)"/>
</g>
</g>
</svg>
